<?xml version="1.0" standalone="no"?>
<!DOCTYPE svg PUBLIC "-//W3C//DTD SVG 20010904//EN"
 "http://www.w3.org/TR/2001/REC-SVG-20010904/DTD/svg10.dtd">
<svg version="1.0" xmlns="http://www.w3.org/2000/svg"
 width="512.000000pt" height="512.000000pt" viewBox="0 0 512.000000 512.000000"
 preserveAspectRatio="xMidYMid meet">
<metadata>
Created by potrace 1.14, written by Peter Selinger 2001-2017
</metadata>
<g transform="translate(0.000000,512.000000) scale(0.100000,-0.100000)"
fill="#000000" stroke="none">
<path d="M1508 3425 c-288 -55 -520 -230 -651 -490 -62 -125 -79 -194 -85
-352 -4 -123 -1 -156 17 -237 49 -211 188 -415 364 -535 171 -117 395 -173
600 -150 267 28 454 144 655 406 l32 41 -69 122 -69 121 -61 -89 c-116 -169
-242 -276 -379 -324 -57 -20 -87 -23 -202 -23 -115 0 -145 3 -201 23 -190 65
-345 222 -410 412 -30 90 -37 234 -15 332 44 198 169 354 351 438 102 48 169
63 275 63 175 0 300 -48 423 -163 123 -115 192 -218 397 -586 139 -250 203
-349 296 -458 122 -142 295 -251 469 -297 115 -30 297 -30 420 0 260 63 472
235 590 476 66 135 85 208 92 350 12 239 -69 464 -232 644 -105 115 -278 218
-440 262 -114 31 -326 31 -440 0 -102 -27 -223 -85 -302 -145 -67 -51 -181
-169 -226 -233 l-28 -41 68 -116 c37 -64 70 -116 73 -116 3 1 29 36 58 79 109
163 240 270 386 317 66 21 101 26 186 26 191 -1 325 -56 455 -186 122 -122
179 -246 191 -411 21 -301 -186 -583 -486 -660 -91 -24 -281 -16 -365 14 -130
47 -252 156 -373 333 -38 57 -132 214 -207 348 -179 320 -240 410 -359 538
-106 113 -277 215 -423 253 -104 27 -275 33 -375 14z"/>
</g>
</svg>
